<svg xmlns="http://www.w3.org/2000/svg" width="1200" height="630" viewBox="0 0 1200 630">
  <defs>
    <linearGradient id="bg" x1="0%" y1="0%" x2="100%" y2="100%">
      <stop offset="0%" style="stop-color:#0a0a1a;stop-opacity:1" />
      <stop offset="50%" style="stop-color:#0f1629;stop-opacity:1" />
      <stop offset="100%" style="stop-color:#0a0a1a;stop-opacity:1" />
    </linearGradient>
    <linearGradient id="accent" x1="0%" y1="0%" x2="100%" y2="0%">
      <stop offset="0%" style="stop-color:#3B82F6;stop-opacity:1" />
      <stop offset="100%" style="stop-color:#8B5CF6;stop-opacity:1" />
    </linearGradient>
    <linearGradient id="glow" x1="0%" y1="0%" x2="100%" y2="100%">
      <stop offset="0%" style="stop-color:#3B82F6;stop-opacity:0.15" />
      <stop offset="100%" style="stop-color:#8B5CF6;stop-opacity:0.05" />
    </linearGradient>
  </defs>

  <!-- Background -->
  <rect width="1200" height="630" fill="url(#bg)"/>

  <!-- Decorative grid -->
  <g opacity="0.06" stroke="#3B82F6" stroke-width="1">
    <line x1="0" y1="0" x2="1200" y2="630"/>
    <line x1="400" y1="0" x2="400" y2="630"/>
    <line x1="800" y1="0" x2="800" y2="630"/>
    <line x1="0" y1="210" x2="1200" y2="210"/>
    <line x1="0" y1="420" x2="1200" y2="420"/>
  </g>

  <!-- Glow circle -->
  <circle cx="900" cy="315" r="250" fill="url(#glow)" opacity="0.5"/>
  <circle cx="300" cy="315" r="180" fill="url(#glow)" opacity="0.3"/>

  <!-- Decorative atoms/orbits -->
  <g transform="translate(920, 280)" opacity="0.2">
    <ellipse cx="0" cy="0" rx="120" ry="40" fill="none" stroke="#3B82F6" stroke-width="1.5" transform="rotate(0)"/>
    <ellipse cx="0" cy="0" rx="120" ry="40" fill="none" stroke="#8B5CF6" stroke-width="1.5" transform="rotate(60)"/>
    <ellipse cx="0" cy="0" rx="120" ry="40" fill="none" stroke="#06B6D4" stroke-width="1.5" transform="rotate(120)"/>
    <circle cx="0" cy="0" r="8" fill="#3B82F6"/>
  </g>

  <!-- Logo icon -->
  <rect x="80" y="160" width="72" height="72" rx="16" fill="url(#accent)"/>
  <text x="116" y="210" text-anchor="middle" fill="white" font-size="40" font-family="Arial, sans-serif">&#127891;</text>

  <!-- Title -->
  <text x="80" y="300" fill="white" font-size="64" font-weight="800" font-family="'Inter', 'Segoe UI', Arial, sans-serif" letter-spacing="-1">Coach Atlas</text>

  <!-- Tagline -->
  <text x="80" y="360" fill="#94A3B8" font-size="28" font-weight="400" font-family="'Inter', 'Segoe UI', Arial, sans-serif">Master Physics &amp; Engineering Through</text>
  <text x="80" y="400" fill="#94A3B8" font-size="28" font-weight="400" font-family="'Inter', 'Segoe UI', Arial, sans-serif">Interactive Simulations &amp; AI Coaching</text>

  <!-- Stats bar -->
  <rect x="80" y="450" width="700" height="1" fill="#2a2a4a"/>

  <text x="80" y="500" fill="#3B82F6" font-size="32" font-weight="700" font-family="'Inter', 'Segoe UI', Arial, sans-serif">342+</text>
  <text x="195" y="500" fill="#6B7280" font-size="20" font-weight="400" font-family="'Inter', 'Segoe UI', Arial, sans-serif">Games</text>

  <text x="320" y="500" fill="#8B5CF6" font-size="32" font-weight="700" font-family="'Inter', 'Segoe UI', Arial, sans-serif">14</text>
  <text x="365" y="500" fill="#6B7280" font-size="20" font-weight="400" font-family="'Inter', 'Segoe UI', Arial, sans-serif">Categories</text>

  <text x="540" y="500" fill="#10B981" font-size="32" font-weight="700" font-family="'Inter', 'Segoe UI', Arial, sans-serif">AI</text>
  <text x="585" y="500" fill="#6B7280" font-size="20" font-weight="400" font-family="'Inter', 'Segoe UI', Arial, sans-serif">Coaching</text>

  <!-- URL -->
  <text x="80" y="570" fill="#4B5563" font-size="22" font-weight="400" font-family="'Inter', 'Segoe UI', Arial, sans-serif">coachatlas.ai</text>

  <!-- Border accent line -->
  <rect x="0" y="0" width="1200" height="4" fill="url(#accent)"/>
  <rect x="0" y="626" width="1200" height="4" fill="url(#accent)"/>
</svg>